STARTFONT 2.1
FONT -Mezgrman-Segment14_16-Regular-R-Normal--16-150-75-75-M-100-ISO8859-1
SIZE 15 75 75
FONTBOUNDINGBOX 12 13 0 0
COMMENT "Generated by fontforge, http://fontforge.sourceforge.net"
COMMENT "Copyright (C) 2016, Julian Metzler"
STARTPROPERTIES 31
FOUNDRY "Mezgrman"
FAMILY_NAME "Segment14_16"
WEIGHT_NAME "Regular"
SLANT "R"
SETWIDTH_NAME "Normal"
ADD_STYLE_NAME ""
PIXEL_SIZE 16
POINT_SIZE 150
RESOLUTION_X 75
RESOLUTION_Y 75
SPACING "M"
AVERAGE_WIDTH 100
CHARSET_REGISTRY "ISO8859"
CHARSET_ENCODING "1"
FONTNAME_REGISTRY ""
CHARSET_COLLECTIONS "ISOLatin1Encoding"
FONT_NAME "Segment14_16"
FACE_NAME "Segment14_16"
FONT_VERSION "001.000"
FONT_ASCENT 13
FONT_DESCENT 3
UNDERLINE_POSITION -2
UNDERLINE_THICKNESS 1
X_HEIGHT 10
CAP_HEIGHT 10
RAW_ASCENT 800
RAW_DESCENT 200
NORM_SPACE 10
FIGURE_WIDTH 10
AVG_LOWERCASE_WIDTH 100
AVG_UPPERCASE_WIDTH 100
ENDPROPERTIES
CHARS 95
STARTCHAR space
ENCODING 32
SWIDTH 625 0
DWIDTH 10 0
BBX 1 1 11 0
BITMAP
00
ENDCHAR
STARTCHAR exclam
ENCODING 33
SWIDTH 1000 0
DWIDTH 10 0
BBX 5 11 2 0
BITMAP
20
20
20
00
00
00
20
20
20
00
F8
ENDCHAR
STARTCHAR quotedbl
ENCODING 34
SWIDTH 1000 0
DWIDTH 10 0
BBX 5 3 2 8
BITMAP
88
D8
50
ENDCHAR
STARTCHAR numbersign
ENCODING 35
SWIDTH 1000 0
DWIDTH 10 0
BBX 7 12 2 0
BITMAP
02
22
22
22
02
D8
02
22
22
22
02
F8
ENDCHAR
STARTCHAR dollar
ENCODING 36
SWIDTH 1000 0
DWIDTH 10 0
BBX 9 13 0 0
BITMAP
3E00
8000
8800
8800
8800
8000
3600
0080
0880
0880
0880
0080
3E00
ENDCHAR
STARTCHAR percent
ENCODING 37
SWIDTH 1000 0
DWIDTH 10 0
BBX 9 11 0 1
BITMAP
8000
8200
8600
8400
8000
0000
0080
1080
3080
2080
0080
ENDCHAR
STARTCHAR ampersand
ENCODING 38
SWIDTH 1000 0
DWIDTH 10 0
BBX 7 13 0 0
BITMAP
3E
80
88
88
88
80
36
80
88
88
88
80
3E
ENDCHAR
STARTCHAR quotesingle
ENCODING 39
SWIDTH 1000 0
DWIDTH 10 0
BBX 1 3 4 8
BITMAP
80
80
80
ENDCHAR
STARTCHAR parenleft
ENCODING 40
SWIDTH 1000 0
DWIDTH 10 0
BBX 2 9 5 2
BITMAP
40
C0
80
00
00
00
80
C0
40
ENDCHAR
STARTCHAR parenright
ENCODING 41
SWIDTH 1000 0
DWIDTH 10 0
BBX 2 9 2 2
BITMAP
80
C0
40
00
00
00
40
C0
80
ENDCHAR
STARTCHAR asterisk
ENCODING 42
SWIDTH 1000 0
DWIDTH 10 0
BBX 5 9 2 2
BITMAP
A8
F8
70
00
D8
00
70
F8
A8
ENDCHAR
STARTCHAR plus
ENCODING 43
SWIDTH 1000 0
DWIDTH 10 0
BBX 5 9 2 2
BITMAP
20
20
20
00
D8
00
20
20
20
ENDCHAR
STARTCHAR comma
ENCODING 44
SWIDTH 1000 0
DWIDTH 10 0
BBX 2 3 2 2
BITMAP
40
C0
80
ENDCHAR
STARTCHAR hyphen
ENCODING 45
SWIDTH 1000 0
DWIDTH 10 0
BBX 5 1 2 6
BITMAP
D8
ENDCHAR
STARTCHAR period
ENCODING 46
SWIDTH 1000 0
DWIDTH 10 0
BBX 1 3 4 2
BITMAP
80
80
80
ENDCHAR
STARTCHAR slash
ENCODING 47
SWIDTH 1000 0
DWIDTH 10 0
BBX 5 9 2 2
BITMAP
08
18
10
00
00
00
40
C0
80
ENDCHAR
STARTCHAR zero
ENCODING 48
SWIDTH 1000 0
DWIDTH 10 0
BBX 9 13 0 0
BITMAP
3E00
8080
8080
8080
8080
8080
0000
8080
8080
8080
8080
8080
3E00
ENDCHAR
STARTCHAR one
ENCODING 49
SWIDTH 1000 0
DWIDTH 10 0
BBX 4 11 5 1
BITMAP
10
50
D0
90
10
00
10
10
10
10
10
ENDCHAR
STARTCHAR two
ENCODING 50
SWIDTH 1000 0
DWIDTH 10 0
BBX 9 13 0 0
BITMAP
3E00
0080
0080
0080
0080
0080
3600
8000
8000
8000
8000
8000
3E00
ENDCHAR
STARTCHAR three
ENCODING 51
SWIDTH 1000 0
DWIDTH 10 0
BBX 7 13 2 0
BITMAP
F8
02
02
02
02
02
18
02
02
02
02
02
F8
ENDCHAR
STARTCHAR four
ENCODING 52
SWIDTH 1000 0
DWIDTH 10 0
BBX 9 11 0 1
BITMAP
8080
8080
8080
8080
8080
3600
0080
0080
0080
0080
0080
ENDCHAR
STARTCHAR five
ENCODING 53
SWIDTH 1000 0
DWIDTH 10 0
BBX 9 13 0 0
BITMAP
3E00
8000
8000
8000
8000
8000
3600
0080
0080
0080
0080
0080
3E00
ENDCHAR
STARTCHAR six
ENCODING 54
SWIDTH 1000 0
DWIDTH 10 0
BBX 9 13 0 0
BITMAP
3E00
8000
8000
8000
8000
8000
3600
8080
8080
8080
8080
8080
3E00
ENDCHAR
STARTCHAR seven
ENCODING 55
SWIDTH 1000 0
DWIDTH 10 0
BBX 7 12 2 1
BITMAP
F8
02
02
02
02
02
00
02
02
02
02
02
ENDCHAR
STARTCHAR eight
ENCODING 56
SWIDTH 1000 0
DWIDTH 10 0
BBX 9 13 0 0
BITMAP
3E00
8080
8080
8080
8080
8080
3600
8080
8080
8080
8080
8080
3E00
ENDCHAR
STARTCHAR nine
ENCODING 57
SWIDTH 1000 0
DWIDTH 10 0
BBX 9 13 0 0
BITMAP
3E00
8080
8080
8080
8080
8080
3600
0080
0080
0080
0080
0080
3E00
ENDCHAR
STARTCHAR colon
ENCODING 58
SWIDTH 1000 0
DWIDTH 10 0
BBX 1 9 4 2
BITMAP
80
80
80
00
00
00
80
80
80
ENDCHAR
STARTCHAR semicolon
ENCODING 59
SWIDTH 1000 0
DWIDTH 10 0
BBX 3 9 2 2
BITMAP
20
20
20
00
00
00
40
C0
80
ENDCHAR
STARTCHAR less
ENCODING 60
SWIDTH 1000 0
DWIDTH 10 0
BBX 5 9 2 2
BITMAP
08
18
10
00
C0
00
10
18
08
ENDCHAR
STARTCHAR equal
ENCODING 61
SWIDTH 1000 0
DWIDTH 10 0
BBX 5 7 2 0
BITMAP
D8
00
00
00
00
00
F8
ENDCHAR
STARTCHAR greater
ENCODING 62
SWIDTH 1000 0
DWIDTH 10 0
BBX 5 9 2 2
BITMAP
80
C0
40
00
18
00
40
C0
80
ENDCHAR
STARTCHAR question
ENCODING 63
SWIDTH 1000 0
DWIDTH 10 0
BBX 7 13 2 0
BITMAP
F8
02
02
02
02
02
18
00
20
20
20
00
F8
ENDCHAR
STARTCHAR at
ENCODING 64
SWIDTH 1000 0
DWIDTH 10 0
BBX 9 13 0 0
BITMAP
3E00
8080
8080
8080
8080
8080
0600
8080
8880
8880
8880
8080
3E00
ENDCHAR
STARTCHAR A
ENCODING 65
SWIDTH 625 0
DWIDTH 10 0
BBX 9 12 0 1
BITMAP
3E00
8080
8080
8080
8080
8080
3600
8080
8080
8080
8080
8080
ENDCHAR
STARTCHAR B
ENCODING 66
SWIDTH 1000 0
DWIDTH 10 0
BBX 7 13 2 0
BITMAP
F8
02
22
22
22
02
18
02
22
22
22
02
F8
ENDCHAR
STARTCHAR C
ENCODING 67
SWIDTH 1000 0
DWIDTH 10 0
BBX 7 13 0 0
BITMAP
3E
80
80
80
80
80
00
80
80
80
80
80
3E
ENDCHAR
STARTCHAR D
ENCODING 68
SWIDTH 1000 0
DWIDTH 10 0
BBX 7 13 2 0
BITMAP
F8
02
22
22
22
02
00
02
22
22
22
02
F8
ENDCHAR
STARTCHAR E
ENCODING 69
SWIDTH 1000 0
DWIDTH 10 0
BBX 7 13 0 0
BITMAP
3E
80
80
80
80
80
30
80
80
80
80
80
3E
ENDCHAR
STARTCHAR F
ENCODING 70
SWIDTH 1000 0
DWIDTH 10 0
BBX 7 12 0 1
BITMAP
3E
80
80
80
80
80
30
80
80
80
80
80
ENDCHAR
STARTCHAR G
ENCODING 71
SWIDTH 1000 0
DWIDTH 10 0
BBX 9 13 0 0
BITMAP
3E00
8000
8000
8000
8000
8000
0600
8080
8080
8080
8080
8080
3E00
ENDCHAR
STARTCHAR H
ENCODING 72
SWIDTH 1000 0
DWIDTH 10 0
BBX 9 11 0 1
BITMAP
8080
8080
8080
8080
8080
3600
8080
8080
8080
8080
8080
ENDCHAR
STARTCHAR I
ENCODING 73
SWIDTH 1000 0
DWIDTH 10 0
BBX 5 13 2 0
BITMAP
F8
00
20
20
20
00
00
00
20
20
20
00
F8
ENDCHAR
STARTCHAR J
ENCODING 74
SWIDTH 1000 0
DWIDTH 10 0
BBX 9 12 0 0
BITMAP
0080
0080
0080
0080
0080
0000
0080
8080
8080
8080
8080
3E00
ENDCHAR
STARTCHAR K
ENCODING 75
SWIDTH 1000 0
DWIDTH 10 0
BBX 7 11 0 1
BITMAP
80
82
86
84
80
30
80
84
86
82
80
ENDCHAR
STARTCHAR L
ENCODING 76
SWIDTH 1000 0
DWIDTH 10 0
BBX 7 12 0 0
BITMAP
80
80
80
80
80
00
80
80
80
80
80
3E
ENDCHAR
STARTCHAR M
ENCODING 77
SWIDTH 1000 0
DWIDTH 10 0
BBX 9 11 0 1
BITMAP
8080
A280
B680
9480
8080
0000
8080
8080
8080
8080
8080
ENDCHAR
STARTCHAR N
ENCODING 78
SWIDTH 1000 0
DWIDTH 10 0
BBX 9 11 0 1
BITMAP
8080
A080
B080
9080
8080
0000
8080
8480
8680
8280
8080
ENDCHAR
STARTCHAR O
ENCODING 79
SWIDTH 1000 0
DWIDTH 10 0
BBX 9 13 0 0
BITMAP
3E00
8080
8080
8080
8080
8080
0000
8080
8080
8080
8080
8080
3E00
ENDCHAR
STARTCHAR P
ENCODING 80
SWIDTH 1000 0
DWIDTH 10 0
BBX 9 12 0 1
BITMAP
3E00
8080
8080
8080
8080
8080
3600
8000
8000
8000
8000
8000
ENDCHAR
STARTCHAR Q
ENCODING 81
SWIDTH 1000 0
DWIDTH 10 0
BBX 9 13 0 0
BITMAP
3E00
8080
8080
8080
8080
8080
0000
8080
8480
8680
8280
8080
3E00
ENDCHAR
STARTCHAR R
ENCODING 82
SWIDTH 1000 0
DWIDTH 10 0
BBX 9 12 0 1
BITMAP
3E00
8080
8080
8080
8080
8080
3600
8000
8400
8600
8200
8000
ENDCHAR
STARTCHAR S
ENCODING 83
SWIDTH 1000 0
DWIDTH 10 0
BBX 9 13 0 0
BITMAP
3E00
8000
8000
8000
8000
8000
3600
0080
0080
0080
0080
0080
3E00
ENDCHAR
STARTCHAR T
ENCODING 84
SWIDTH 1000 0
DWIDTH 10 0
BBX 5 11 2 2
BITMAP
F8
00
20
20
20
00
00
00
20
20
20
ENDCHAR
STARTCHAR U
ENCODING 85
SWIDTH 1000 0
DWIDTH 10 0
BBX 9 12 0 0
BITMAP
8080
8080
8080
8080
8080
0000
8080
8080
8080
8080
8080
3E00
ENDCHAR
STARTCHAR V
ENCODING 86
SWIDTH 1000 0
DWIDTH 10 0
BBX 7 11 0 1
BITMAP
80
82
86
84
80
00
80
90
B0
A0
80
ENDCHAR
STARTCHAR W
ENCODING 87
SWIDTH 1000 0
DWIDTH 10 0
BBX 9 11 0 1
BITMAP
8080
8080
8080
8080
8080
0000
8080
9480
B680
A280
8080
ENDCHAR
STARTCHAR X
ENCODING 88
SWIDTH 1000 0
DWIDTH 10 0
BBX 5 9 2 2
BITMAP
88
D8
50
00
00
00
50
D8
88
ENDCHAR
STARTCHAR Y
ENCODING 89
SWIDTH 1000 0
DWIDTH 10 0
BBX 5 9 2 2
BITMAP
88
D8
50
00
00
00
20
20
20
ENDCHAR
STARTCHAR Z
ENCODING 90
SWIDTH 1000 0
DWIDTH 10 0
BBX 5 13 2 0
BITMAP
F8
00
08
18
10
00
00
00
40
C0
80
00
F8
ENDCHAR
STARTCHAR bracketleft
ENCODING 91
SWIDTH 1000 0
DWIDTH 10 0
BBX 7 13 0 0
BITMAP
3E
80
80
80
80
80
00
80
80
80
80
80
3E
ENDCHAR
STARTCHAR backslash
ENCODING 92
SWIDTH 1000 0
DWIDTH 10 0
BBX 5 9 2 2
BITMAP
80
C0
40
00
00
00
10
18
08
ENDCHAR
STARTCHAR bracketright
ENCODING 93
SWIDTH 1000 0
DWIDTH 10 0
BBX 7 13 2 0
BITMAP
F8
02
02
02
02
02
00
02
02
02
02
02
F8
ENDCHAR
STARTCHAR asciicircum
ENCODING 94
SWIDTH 1000 0
DWIDTH 10 0
BBX 4 5 0 7
BITMAP
80
A0
B0
90
80
ENDCHAR
STARTCHAR underscore
ENCODING 95
SWIDTH 1000 0
DWIDTH 10 0
BBX 5 1 2 0
BITMAP
F8
ENDCHAR
STARTCHAR grave
ENCODING 96
SWIDTH 1000 0
DWIDTH 10 0
BBX 2 3 2 8
BITMAP
80
C0
40
ENDCHAR
STARTCHAR a
ENCODING 97
SWIDTH 1000 0
DWIDTH 10 0
BBX 9 13 0 0
BITMAP
3E00
0080
0080
0080
0080
0080
3600
8080
8080
8080
8080
8080
3E00
ENDCHAR
STARTCHAR b
ENCODING 98
SWIDTH 1000 0
DWIDTH 10 0
BBX 9 12 0 0
BITMAP
8000
8000
8000
8000
8000
3600
8080
8080
8080
8080
8080
3E00
ENDCHAR
STARTCHAR c
ENCODING 99
SWIDTH 1000 0
DWIDTH 10 0
BBX 7 7 0 0
BITMAP
36
80
80
80
80
80
3E
ENDCHAR
STARTCHAR d
ENCODING 100
SWIDTH 1000 0
DWIDTH 10 0
BBX 9 12 0 0
BITMAP
0080
0080
0080
0080
0080
3600
8080
8080
8080
8080
8080
3E00
ENDCHAR
STARTCHAR e
ENCODING 101
SWIDTH 1000 0
DWIDTH 10 0
BBX 9 13 0 0
BITMAP
3E00
8080
8080
8080
8080
8080
3600
8000
8000
8000
8000
8000
3E00
ENDCHAR
STARTCHAR f
ENCODING 102
SWIDTH 1000 0
DWIDTH 10 0
BBX 9 12 0 1
BITMAP
3E00
8080
8080
8080
8080
8080
3000
8000
8000
8000
8000
8000
ENDCHAR
STARTCHAR g
ENCODING 103
SWIDTH 1000 0
DWIDTH 10 0
BBX 9 13 0 0
BITMAP
3E00
8080
8080
8080
8080
8080
3600
0080
0080
0080
0080
0080
3E00
ENDCHAR
STARTCHAR h
ENCODING 104
SWIDTH 1000 0
DWIDTH 10 0
BBX 9 11 0 1
BITMAP
8000
8000
8000
8000
8000
3600
8080
8080
8080
8080
8080
ENDCHAR
STARTCHAR i
ENCODING 105
SWIDTH 1000 0
DWIDTH 10 0
BBX 5 11 2 2
BITMAP
F8
00
00
00
00
00
00
00
20
20
20
ENDCHAR
STARTCHAR j
ENCODING 106
SWIDTH 1000 0
DWIDTH 10 0
BBX 7 13 2 0
BITMAP
F8
00
00
00
00
00
00
02
02
02
02
02
F8
ENDCHAR
STARTCHAR k
ENCODING 107
SWIDTH 1000 0
DWIDTH 10 0
BBX 7 11 0 1
BITMAP
80
82
86
84
80
30
80
84
86
82
80
ENDCHAR
STARTCHAR l
ENCODING 108
SWIDTH 1000 0
DWIDTH 10 0
BBX 1 9 4 2
BITMAP
80
80
80
00
00
00
80
80
80
ENDCHAR
STARTCHAR m
ENCODING 109
SWIDTH 1000 0
DWIDTH 10 0
BBX 9 6 0 1
BITMAP
3600
8080
8880
8880
8880
8080
ENDCHAR
STARTCHAR n
ENCODING 110
SWIDTH 1000 0
DWIDTH 10 0
BBX 9 6 0 1
BITMAP
3600
8080
8080
8080
8080
8080
ENDCHAR
STARTCHAR o
ENCODING 111
SWIDTH 1000 0
DWIDTH 10 0
BBX 9 7 0 0
BITMAP
3600
8080
8080
8080
8080
8080
3E00
ENDCHAR
STARTCHAR p
ENCODING 112
SWIDTH 1000 0
DWIDTH 10 0
BBX 9 12 0 1
BITMAP
3E00
8080
8080
8080
8080
8080
3600
8000
8000
8000
8000
8000
ENDCHAR
STARTCHAR q
ENCODING 113
SWIDTH 1000 0
DWIDTH 10 0
BBX 9 12 0 1
BITMAP
3E00
8080
8080
8080
8080
8080
3600
0080
0080
0080
0080
0080
ENDCHAR
STARTCHAR r
ENCODING 114
SWIDTH 1000 0
DWIDTH 10 0
BBX 7 6 0 1
BITMAP
36
80
80
80
80
80
ENDCHAR
STARTCHAR s
ENCODING 115
SWIDTH 1000 0
DWIDTH 10 0
BBX 9 13 0 0
BITMAP
3E00
8000
8000
8000
8000
8000
3600
0080
0080
0080
0080
0080
3E00
ENDCHAR
STARTCHAR t
ENCODING 116
SWIDTH 1000 0
DWIDTH 10 0
BBX 7 12 0 0
BITMAP
80
80
80
80
80
30
80
80
80
80
80
3E
ENDCHAR
STARTCHAR u
ENCODING 117
SWIDTH 1000 0
DWIDTH 10 0
BBX 9 6 0 0
BITMAP
8080
8080
8080
8080
8080
3E00
ENDCHAR
STARTCHAR v
ENCODING 118
SWIDTH 1000 0
DWIDTH 10 0
BBX 4 5 0 1
BITMAP
80
90
B0
A0
80
ENDCHAR
STARTCHAR w
ENCODING 119
SWIDTH 1000 0
DWIDTH 10 0
BBX 9 5 0 1
BITMAP
8080
9480
B680
A280
8080
ENDCHAR
STARTCHAR x
ENCODING 120
SWIDTH 1000 0
DWIDTH 10 0
BBX 5 9 2 2
BITMAP
88
D8
50
00
00
00
50
D8
88
ENDCHAR
STARTCHAR y
ENCODING 121
SWIDTH 1000 0
DWIDTH 10 0
BBX 9 12 0 0
BITMAP
8080
8080
8080
8080
8080
3600
0080
0080
0080
0080
0080
3E00
ENDCHAR
STARTCHAR z
ENCODING 122
SWIDTH 1000 0
DWIDTH 10 0
BBX 5 13 2 0
BITMAP
F8
00
08
18
10
00
00
00
40
C0
80
00
F8
ENDCHAR
STARTCHAR braceleft
ENCODING 123
SWIDTH 1000 0
DWIDTH 10 0
BBX 2 9 5 2
BITMAP
40
C0
80
00
00
00
80
C0
40
ENDCHAR
STARTCHAR bar
ENCODING 124
SWIDTH 1000 0
DWIDTH 10 0
BBX 1 9 4 2
BITMAP
80
80
80
00
00
00
80
80
80
ENDCHAR
STARTCHAR braceright
ENCODING 125
SWIDTH 1000 0
DWIDTH 10 0
BBX 2 9 2 2
BITMAP
80
C0
40
00
00
00
40
C0
80
ENDCHAR
STARTCHAR asciitilde
ENCODING 126
SWIDTH 1000 0
DWIDTH 10 0
BBX 5 1 2 6
BITMAP
D8
ENDCHAR
ENDFONT
